<svg data-v-423bf9ae="" xmlns="http://www.w3.org/2000/svg" viewBox="0 0 450 90" class="iconLeft"><!----><!----><!----><g data-v-423bf9ae="" id="704f16b5-026d-4d41-a2b2-0ec7b3605dbd" fill="#FFFFFF" transform="matrix(6.1224488604322,0,0,6.1224488604322,123.69066375953253,10.714287480008146)"><path d="M4.13 0.70L4.13 0.70L4.44 0.70L4.44 10.50L4.13 10.50L3.15 10.50L2.90 10.50L2.90 5.60L1.54 5.60L1.54 10.50L0.98 10.50L0 10.50L0 0.70L0.98 0.70L1.54 0.70L1.54 4.06L2.90 4.06L2.90 0.70L3.15 0.70L4.13 0.70ZM10.18 0.70L10.18 0.70L10.54 0.70L10.44 1.05L8.74 7.13L8.74 10.49L8.74 10.50L8.46 10.50L7.48 10.50L7.20 10.50L7.20 10.49L7.20 7.13L5.47 1.05L5.39 0.70L5.75 0.70L6.75 0.70L6.96 0.70L7.01 0.90L7.97 4.37L8.92 0.90L8.97 0.70L9.18 0.70L10.18 0.70ZM14.63 0.70L14.63 0.70L14.63 0.70Q14.85 0.70 15.06 0.79L15.06 0.79L15.06 0.79Q15.26 0.88 15.41 1.04L15.41 1.04L15.41 1.04Q15.55 1.19 15.64 1.40L15.64 1.40L15.64 1.40Q15.74 1.61 15.74 1.83L15.74 1.83L15.74 9.39L15.74 9.39Q15.74 9.86 15.41 10.18L15.41 10.18L15.41 10.18Q15.08 10.50 14.63 10.50L14.63 10.50L11.28 10.50L11.28 4.07L12.82 4.07L12.82 8.96L14.20 8.96L14.20 2.25L12.82 2.25L12.82 4.07L11.28 1.02L11.28 0.70L14.63 0.70ZM20.12 5.60L21.43 10.50L19.95 10.50L18.19 4.06L19.56 4.06L19.56 2.25L18.19 2.25L18.19 4.06L16.65 1.02L16.65 0.70L19.98 0.70L19.98 0.70Q20.41 0.70 20.72 0.98L20.72 0.98L20.72 0.98Q21.03 1.26 21.08 1.68L21.08 1.68L21.10 4.48L21.10 4.49L21.10 4.49Q21.10 4.91 20.81 5.23L20.81 5.23L20.81 5.23Q20.52 5.54 20.12 5.60L20.12 5.60ZM16.65 10.50L16.65 4.06L18.19 4.06L18.19 10.50L16.65 10.50ZM25.51 0.70L25.51 0.70L27.09 10.50L25.52 10.50L24.56 3.70L24.16 6.90L24.16 6.92L24.56 6.92L24.56 8.46L23.91 8.46L23.59 10.50L22.04 10.50L22.36 8.46L22.01 8.46L22.01 6.92L22.61 6.92L23.60 0.70L25.51 0.70ZM31.15 0.70L31.15 0.70L31.15 0.70Q31.56 0.77 31.82 1.08L31.82 1.08L31.82 1.08Q32.09 1.39 32.09 1.81L32.09 1.81L32.09 2.84L32.09 3.29L30.55 3.29L30.55 2.84L30.55 2.23L29.18 2.23L29.18 8.97L30.55 8.97L30.55 8.34L30.55 7.90L32.09 7.90L32.09 8.34L32.09 9.39L32.09 9.39Q32.09 9.81 31.82 10.12L31.82 10.12L31.82 10.12Q31.56 10.43 31.15 10.50L31.15 10.50L28.57 10.50L28.57 10.50Q28.17 10.43 27.90 10.12L27.90 10.12L27.90 10.12Q27.64 9.81 27.64 9.39L27.64 9.39L27.64 1.81L27.64 1.81Q27.64 1.39 27.90 1.08L27.90 1.08L27.90 1.08Q28.17 0.77 28.57 0.70L28.57 0.70L31.15 0.70ZM35.90 0.70L35.90 0.70L37.44 0.70L37.44 10.50L35.90 10.50L35.90 5.60L34.54 5.60L34.54 10.50L33.00 10.50L33.00 4.06L34.52 4.06L33.00 1.02L33.00 0.70L34.54 0.70L34.54 4.06L35.90 4.06L35.90 0.70ZM39.89 0.70L39.89 0.70L42.35 0.70L42.35 1.68L42.35 2.24L39.89 2.24L39.89 4.07L41.85 4.07L41.85 4.35L41.85 5.33L41.85 5.61L39.89 5.61L39.89 8.96L42.35 8.96L42.35 9.52L42.35 10.50L39.89 10.50L38.35 10.50L38.35 9.48L38.35 4.07L39.89 4.07L38.35 1.04L38.35 0.70L39.89 0.70ZM46.77 0.70L46.77 0.70L46.77 0.70Q47.18 0.77 47.45 1.08L47.45 1.08L47.45 1.08Q47.71 1.39 47.71 1.81L47.71 1.81L47.71 2.84L47.71 3.29L46.17 3.29L46.17 2.84L46.17 2.23L44.80 2.23L44.80 8.97L46.17 8.97L46.17 8.34L46.17 7.90L47.71 7.90L47.71 8.34L47.71 9.39L47.71 9.39Q47.71 9.81 47.45 10.12L47.45 10.12L47.45 10.12Q47.18 10.43 46.77 10.50L46.77 10.50L44.20 10.50L44.20 10.50Q43.79 10.43 43.53 10.12L43.53 10.12L43.53 10.12Q43.26 9.81 43.26 9.39L43.26 9.39L43.26 1.81L43.26 1.81Q43.26 1.39 43.53 1.08L43.53 1.08L43.53 1.08Q43.79 0.77 44.20 0.70L44.20 0.70L46.77 0.70ZM51.44 0.71L53.14 0.71L51.34 4.86L53.12 10.50L52.74 10.50L51.69 10.50L51.48 10.50L50.34 6.90L50.16 7.28L50.16 10.50L49.88 10.50L48.90 10.50L48.62 10.50L48.62 4.07L50.16 4.07L51.44 0.71ZM48.62 1.02L48.62 0.70L50.16 0.70L50.16 4.07L48.62 1.02Z"></path></g><!----><g data-v-423bf9ae="" id="e780784f-ac5e-467d-b0ef-1fe395401b57" transform="matrix(1.2025172322188924,0,0,1.2025172322188924,13.405450542180475,-14.55313481765743)" stroke="none" fill="#245760"><path d="M25.913 32.797l16.736 29.195h12.234L25.676 12.753l-36.79 63.561 5.939 11.136z"></path><path d="M31.367 43.632l-5.456-9.375L-4.631 87.45h73.934l5.811-11.826-61.882.063z"></path><path d="M21.448 62.713l-7.035 12.479h60.701L38.308 12.607H26.672l29.683 50.106z"></path></g><!----></svg>